<?xml version="1.0" encoding="UTF-8" standalone="no"?>
<svg width="20px" height="20px" viewBox="0 0 20 20" version="1.1" xmlns="http://www.w3.org/2000/svg" xmlns:xlink="http://www.w3.org/1999/xlink" xmlns:sketch="http://www.bohemiancoding.com/sketch/ns">
    <!-- Generator: Sketch 3.4.3 (16044) - http://www.bohemiancoding.com/sketch -->
    <title>logo</title>
    <desc>Created with Sketch.</desc>
    <defs></defs>
    <g id="Page-1" stroke="none" stroke-width="1" fill="none" fill-rule="evenodd" sketch:type="MSPage">
        <g id="Desktop-HD" sketch:type="MSArtboardGroup" transform="translate(-710.000000, -779.000000)" fill="#000000">
            <g id="Group" sketch:type="MSLayerGroup" transform="translate(710.000000, 779.000000)">
                <path d="M3.72245891,0 L16.0065733,0 L16.0065733,2.60572124 L3.72245891,2.60572124 L3.72245891,0 Z M6.32818014,2.60572124 L13.4008521,2.60572124 L13.4008521,5.21144247 L6.32818014,5.21144247 L6.32818014,2.60572124 Z M8.56165549,5.21144247 L11.1673767,5.21144247 L11.1673767,7.81716371 L8.56165549,7.81716371 L8.56165549,5.21144247 Z" id="Rectangle-1" sketch:type="MSShapeGroup"></path>
                <path d="M16.0065733,19.7290322 L3.72245891,19.7290322 L3.72245891,17.123311 L16.0065733,17.123311 L16.0065733,19.7290322 L16.0065733,19.7290322 Z M13.4008521,17.123311 L6.32818014,17.123311 L6.32818014,14.5175897 L13.4008521,14.5175897 L13.4008521,17.123311 L13.4008521,17.123311 Z M11.1673767,14.5175897 L8.56165549,14.5175897 L8.56165549,11.9118685 L11.1673767,11.9118685 L11.1673767,14.5175897 L11.1673767,14.5175897 Z" id="Rectangle-1" sketch:type="MSShapeGroup"></path>
                <path d="M6.66133815e-16,16.0065733 L1.41831888e-15,3.72245891 L2.60572124,3.72245891 L2.60572124,16.0065733 L6.66133815e-16,16.0065733 L6.66133815e-16,16.0065733 Z M2.60572124,13.4008521 L2.60572124,6.32818014 L5.21144247,6.32818014 L5.21144247,13.4008521 L2.60572124,13.4008521 L2.60572124,13.4008521 Z M5.21144247,11.1673767 L5.21144247,8.56165549 L7.81716371,8.56165549 L7.81716371,11.1673767 L5.21144247,11.1673767 L5.21144247,11.1673767 Z" id="Rectangle-1" sketch:type="MSShapeGroup"></path>
                <path d="M19.3567863,16.0065733 L16.7510651,16.0065733 L16.7510651,3.72245891 L19.3567863,3.72245891 L19.3567863,16.0065733 L19.3567863,16.0065733 Z M16.7510651,13.4008521 L14.1453438,13.4008521 L14.1453438,6.32818014 L16.7510651,6.32818014 L16.7510651,13.4008521 L16.7510651,13.4008521 Z M14.1453438,11.1673767 L11.5396226,11.1673767 L11.5396226,8.56165549 L14.1453438,8.56165549 L14.1453438,11.1673767 L14.1453438,11.1673767 Z" id="Rectangle-1" sketch:type="MSShapeGroup"></path>
            </g>
        </g>
    </g>
</svg>