<?xml version="1.0" standalone="no"?>
<!DOCTYPE svg PUBLIC "-//W3C//DTD SVG 20010904//EN"
 "http://www.w3.org/TR/2001/REC-SVG-20010904/DTD/svg10.dtd">
<svg version="1.0" xmlns="http://www.w3.org/2000/svg"
 width="260.000000pt" height="260.000000pt" viewBox="0 0 260.000000 260.000000"
 preserveAspectRatio="xMidYMid meet">
<metadata>
Created by potrace 1.11, written by Peter Selinger 2001-2013
</metadata>
<g transform="translate(0.000000,260.000000) scale(0.100000,-0.100000)"
fill="#000000" stroke="none">
<path d="M490 2430 l0 -170 170 0 170 0 2 -172 3 -173 148 -3 147 -3 0 -169 0
-170 170 0 170 0 0 170 0 169 148 3 147 3 3 173 2 172 170 0 170 0 0 170 0
170 -810 0 -810 0 0 -170z"/>
<path d="M0 1300 l0 -810 170 0 170 0 0 170 0 170 173 2 172 3 3 148 3 147
169 0 170 0 0 170 0 170 -170 0 -169 0 -3 148 -3 147 -172 3 -173 2 0 170 0
170 -170 0 -170 0 0 -810z"/>
<path d="M2260 1940 l0 -170 -172 -2 -173 -3 -3 -147 -3 -148 -169 0 -170 0 0
-170 0 -170 170 0 169 0 3 -147 3 -148 173 -3 172 -2 0 -170 0 -170 170 0 170
0 0 810 0 810 -170 0 -170 0 0 -170z"/>
<path d="M1130 860 l0 -169 -147 -3 -148 -3 -3 -172 -2 -173 -170 0 -170 0 0
-170 0 -170 810 0 810 0 0 170 0 170 -170 0 -170 0 -2 172 -3 173 -147 3 -148
3 0 169 0 170 -170 0 -170 0 0 -170z"/>
</g>
</svg>
